#!OML:ASF H:\Male1\Project 1\Capture day 1\Session 1\Male1.ASF
:FULLY-SPECIFIED
:DEGREES
575
root 21.4411 15.3724 -4.61587 282.68 88.599 -79.398
lowerback 8.75915 1.54552 -0.754658
upperback 6.91869 2.2961 -0.777622
thorax 2.27147 1.25989 -0.526289
lowerneck -9.90869 3.20174 10.8832
upperneck 24.6645 4.20565 -5.17439
head 9.77749 2.5956 -3.14237
rclavicle 1.37161e-014 -1.03368e-014
rhumerus -30.8777 14.1782 -93.72
rradius 38.2134
rwrist -25.3987
rhand -19.8806 1.01464
rfingers 7.12502
rthumb 6.4551 -28.867
lclavicle 1.37161e-014 -1.03368e-014
lhumerus -31.2596 16.4677 82.0458
lradius 28.6017
lwrist -5.79741
lhand -14.7765 9.02608
lfingers 7.12502
lthumb 11.3803 38.6973
rfemur -13.265 17.6896 24.7012
rtibia 29.5373
rfoot -30.5249 -29.2026
rtoes -14.1843
lfemur -14.4204 -14.781 -21.052
ltibia 32.6829
lfoot -28.2356 25.9652
ltoes -1.33902
576
root 21.4455 15.3715 -4.61552 275.224 88.6752 -86.7677
lowerback 8.35535 1.57057 -0.71497
upperback 6.67743 2.31492 -0.756647
thorax 2.24067 1.26196 -0.519506
lowerneck -9.83213 3.03592 10.7618
upperneck 25.0829 4.18221 -5.68459
head 9.91184 2.54096 -3.31209
rclavicle -9.74045e-015 3.97569e-016
rhumerus -31.271 13.333 -93.8117
rradius 37.4304
rwrist -24.602
rhand -19.603 1.19645
rfingers 7.12502
rthumb 6.72311 -28.6768
lclavicle -9.74045e-015 3.97569e-016
lhumerus -30.361 20.4333 80.4793
lradius 25.9137
lwrist -7.43595
lhand -16.5433 10.5491
lfingers 7.12502
lthumb 9.67602 40.3068
rfemur -13.1598 17.6867 24.6974
rtibia 29.6144
rfoot -30.7534 -29.3231
rtoes -14.0498
lfemur -14.209 -15.0342 -21.1543
ltibia 32.5299
lfoot -28.5343 25.9652
ltoes -1.8644
577
root 21.4481 15.3705 -4.61382 266.013 88.709 -95.8977
lowerback 7.97933 1.5729 -0.676039
upperback 6.44882 2.30489 -0.740056
thorax 2.2087 1.25036 -0.515664
lowerneck -9.76308 2.91569 10.6527
upperneck 25.5354 4.21327 -6.13504
head 10.066 2.5194 -3.45803
rclavicle 6.95746e-016 5.1684e-015
rhumerus -31.5547 12.5523 -93.8957
rradius 36.5873
rwrist -23.7535
rhand -19.3452 1.2772
rfingers 7.12502
rthumb 6.97195 -28.588
lclavicle 6.95746e-016 5.1684e-015
lhumerus -29.4841 24.0312 78.9976
lradius 23.3617
lwrist -9.14974
lhand -18.5762 12.552
lfingers 7.12502
lthumb 7.71424 42.3913
rfemur -13.0591 17.7489 24.7167
rtibia 29.6904
rfoot -31.0125 -29.5262
rtoes -13.9697
lfemur -14.0116 -15.3288 -21.2299
ltibia 32.3741
lfoot -28.8176 26.006
ltoes -2.45011
578
root 21.4496 15.3693 -4.611 255.473 88.737 -106.368
lowerback 7.61678 1.55349 -0.692904
upperback 6.2366 2.26488 -0.743161
thorax 2.18581 1.22301 -0.499434
lowerneck -9.67535 2.85046 10.607
upperneck 25.9535 4.30343 -6.54679
head 10.2128 2.53371 -3.59493
rclavicle 1.99779e-014 -1.47101e-014
rhumerus -31.7266 11.8795 -93.9855
rradius 35.6898
rwrist -22.9756
rhand -19.1427 1.35794
rfingers 7.12502
rthumb 7.16736 -28.5007
lclavicle 1.99779e-014 -1.47101e-014
lhumerus -28.6492 27.0009 77.7156
lradius 21.1318
lwrist -11.0495
lhand -20.476 14.8073
lfingers 7.12502
lthumb 5.88027 44.7057
rfemur -12.9796 17.8359 24.6988
rtibia 29.7837
rfoot -31.3331 -29.7446
rtoes -13.8889
lfemur -13.8207 -15.6615 -21.3359
ltibia 32.2026
lfoot -29.0909 26.1074
ltoes -3.1804
579
root 21.4509 15.3678 -4.60739 243.422 88.7709 -118.358
lowerback 7.25873 1.51977 -0.786897
upperback 6.04943 2.20483 -0.770399
thorax 2.18541 1.18448 -0.463777
lowerneck -9.58729 2.83917 10.6125
upperneck 26.3086 4.44104 -6.89996
head 10.344 2.57804 -3.71388
rclavicle 9.83984e-015 -1.03368e-014
rhumerus -31.788 11.2941 -94.0627
rradius 34.7779
rwrist -22.2761
rhand -18.9555 1.42917
rfingers 7.12502
rthumb 7.34806 -28.4232
lclavicle 9.83984e-015 -1.03368e-014
lhumerus -27.812 28.9728 76.8259
lradius 19.3907
lwrist -12.9962
lhand -21.8962 17.0296
lfingers 7.12502
lthumb 4.50902 46.9616
rfemur -12.9286 17.8991 24.6141
rtibia 29.9099
rfoot -31.7073 -29.922
rtoes -13.7964
lfemur -13.6257 -16.0226 -21.5024
ltibia 32.0077
lfoot -29.3419 26.274
ltoes -4.11318
580
root 21.4526 15.3659 -4.60329 229.513 88.7899 -132.215
lowerback 6.91774 1.48508 -0.939535
upperback 5.87861 2.14328 -0.8202
thorax 2.19221 1.14457 -0.419094
lowerneck -9.51519 2.86932 10.6245
upperneck 26.61 4.60223 -7.1491
head 10.4614 2.64201 -3.79287
rclavicle -2.26615e-014 1.15295e-014
rhumerus -31.7929 10.6977 -94.1014
rradius 33.9211
rwrist -21.6267
rhand -18.7691 1.51059
rfingers 7.12502
rthumb 7.52807 -28.3354
lclavicle -2.26615e-014 1.15295e-014
lhumerus -26.9169 29.5241 76.5231
lradius 18.25
lwrist -14.5912
lhand -22.6618 18.8591
lfingers 7.12502
lthumb 3.76972 48.8055
rfemur -12.9047 17.8984 24.4632
rtibia 30.068
rfoot -32.0874 -30.0362
rtoes -13.7282
lfemur -13.4259 -16.3973 -21.7283
ltibia 31.7946
lfoot -29.5544 26.4809
ltoes -5.18481
